<?xml version="1.0" encoding="iso-8859-1"?>
<!-- Generator: Adobe Illustrator 19.0.0, SVG Export Plug-In . SVG Version: 6.00 Build 0)  -->
<svg version="1.1" id="Capa_1" xmlns="http://www.w3.org/2000/svg" xmlns:xlink="http://www.w3.org/1999/xlink" x="0px" y="0px"
	 viewBox="0 0 511.997 511.997" style="enable-background:new 0 0 511.997 511.997;" xml:space="preserve">
<path style="fill:#E5E5E5;" d="M503.478,238.961l-42.595-42.595c0-37.484-30.668-68.152-68.152-68.152H196.795
	c-9.371-23.001-33.224-42.595-57.929-42.595H77.529c-5.963,0-11.927,1.704-16.186,5.111l-40.039,28.965
	c-7.667,5.111-11.927,13.63-11.927,23.001l0,0c0,15.334,12.778,28.113,28.113,28.113h31.52v85.19
	c0,28.113,17.038,52.818,42.595,63.041v107.339h34.076v-68.152l25.557-34.076l-3.408-9.371c8.519,5.963,18.742,9.371,28.965,9.371
	h161.861v-25.557c0,33.224,26.409,59.633,59.633,59.633h17.038v68.152h34.076v-85.19l-34.076-25.557
	c18.742,0,34.076-15.334,34.076-34.076v-32.372C482.181,251.739,494.108,247.48,503.478,238.961z"/>
<path style="fill:#DEDEDE;" d="M460.883,196.366c0-29.816-18.742-56.225-47.706-64.744
	c-72.411,125.229-219.79,169.528-307.536,184.01c1.704,0.852,4.259,2.556,5.963,3.408v107.339h34.076v-68.152l25.557-34.076
	l-3.408-9.371c8.519,5.963,18.742,9.371,28.965,9.371h161.861v-25.557c0,33.224,26.409,59.633,59.633,59.633h17.038v68.152h34.076
	v-85.19l-34.076-25.557c18.742,0,34.076-15.334,34.076-34.076v-32.372c12.778,2.556,24.705-1.704,34.076-10.223L460.883,196.366z"/>
<g>
	<rect id="SVGCleanerId_0" x="69.01" y="111.176" style="fill:#75462E;" width="17.038" height="17.038"/>
</g>
<path style="fill:#D1D1D1;" d="M94.567,179.328H69.01c-5.111,0-8.519-3.408-8.519-8.519c0-5.111,3.408-8.519,8.519-8.519h25.557
	c14.482,0,25.557-11.075,25.557-25.557c0-5.111,3.408-8.519,8.519-8.519c5.111,0,8.519,3.408,8.519,8.519
	C137.162,160.586,118.42,179.328,94.567,179.328z"/>
<g>
	<rect id="SVGCleanerId_0_1_" x="69.01" y="111.176" style="fill:#FA962A;" width="17.038" height="17.038"/>
</g>
<path d="M469.402,192.958c-1.704-40.891-35.78-73.263-76.671-73.263H201.906C189.98,94.99,166.126,78.804,138.866,77.1H77.529
	c-7.667,0-15.334,2.556-21.297,6.815L15.34,112.88c-16.186,11.927-20.446,34.928-8.519,51.114
	c7.667,9.371,18.742,15.334,30.668,15.334h23.001v76.671c0,28.965,16.186,56.225,42.595,69.004v101.376
	c0,5.111,3.408,8.519,8.519,8.519h34.076c5.111,0,8.519-3.408,8.519-8.519v-65.596l23.853-31.52
	c5.963,1.704,12.778,3.408,18.742,3.408h161.861v-0.852c11.927,21.297,34.928,34.928,59.633,34.928h8.519v59.633
	c0,5.111,3.408,8.519,8.519,8.519h34.076c5.111,0,8.519-3.408,8.519-8.519v-85.19c0-2.556-0.852-5.111-3.408-6.815l-19.594-14.482
	c14.482-7.667,23.001-22.149,23.001-38.335v-23.001c11.927-0.852,23.001-5.963,31.52-13.63c3.408-3.408,3.408-8.519,0-11.927
	L469.402,192.958z M458.328,232.997l-11.927,11.927c4.26,4.26,9.371,7.667,14.482,10.223v26.409
	c0,14.482-11.075,25.557-25.557,25.557c-5.111,0-8.519,3.408-8.519,8.519c0,2.556,0.852,5.111,3.408,6.815l30.668,23.001v72.411
	h-17.038v-59.633c0-5.111-3.408-8.519-8.519-8.519h-17.038c-28.113,0-51.114-23.001-51.114-51.114v-42.595h-17.038v42.595
	c0,5.963,0.852,11.075,2.556,17.038H196.795c-23.853,0-42.595-18.742-42.595-42.595v-17.038h-17.038v17.038
	c0,19.594,9.371,37.484,25.557,48.558l-23.853,31.52c-0.852,1.704-1.704,3.408-1.704,5.111v59.633h-17.038v-98.82
	c0-3.408-1.704-6.815-5.111-7.667c-23.001-9.371-37.484-30.668-37.484-55.373v-76.671h17.038c18.742,0,34.928-12.778,40.891-30.668
	c5.963,3.408,12.778,4.259,18.742,5.111c5.111,0,8.519-3.408,8.519-8.519v-34.076h-17.038v23.853
	c-10.223-3.408-17.038-13.63-17.038-23.853h-17.038c0,9.371,3.408,17.89,8.519,25.557l0,0c0,14.482-11.075,25.557-25.557,25.557
	H37.49c-11.075,0-19.594-8.519-19.594-19.594c0-5.963,3.408-11.927,8.519-16.186l40.891-28.965
	c3.408-2.556,7.667-3.408,11.075-3.408h61.337c22.149,1.704,41.743,16.186,50.262,37.484c1.704,3.408,4.259,5.111,7.667,5.111
	h195.937c33.224,0,59.633,26.409,59.633,59.633c0,2.556,0.852,4.259,2.556,5.963l35.78,35.78
	C479.625,244.924,465.995,242.368,458.328,232.997z"/>
<g>
	<rect id="SVGCleanerId_0_2_" x="69.01" y="111.176" width="17.038" height="17.038"/>
</g>
<g>
</g>
<g>
</g>
<g>
</g>
<g>
</g>
<g>
</g>
<g>
</g>
<g>
</g>
<g>
</g>
<g>
</g>
<g>
</g>
<g>
</g>
<g>
</g>
<g>
</g>
<g>
</g>
<g>
</g>
</svg>
